<?xml version="1.0" encoding="UTF-8"?>
<svg version="1.1" xmlns="http://www.w3.org/2000/svg" width="32" height="32">
<path d="M0 0 C4.8846525 2.26787438 7.73212562 5.1153475 10 10 C10.75381535 15.5997712 10.77303575 20.33499991 8.375 25.5 C3.80134327 30.3143755 0.6912538 32.25156236 -6 32.5 C-12.6912538 32.25156236 -15.80134327 30.3143755 -20.375 25.5 C-22.77303575 20.33499991 -22.75381535 15.5997712 -22 10 C-17.52212837 0.3553534 -9.85292056 -1.32635469 0 0 Z " fill="#030303" transform="translate(22,0)"/>
<path d="M0 0 C0.66 0 1.32 0 2 0 C2.06058594 0.77085938 2.12117188 1.54171875 2.18359375 2.3359375 C2.26738281 3.33882812 2.35117187 4.34171875 2.4375 5.375 C2.51871094 6.37273438 2.59992187 7.37046875 2.68359375 8.3984375 C2.84965626 10.97927613 2.84965626 10.97927613 4 13 C4.0396713 14.66619446 4.04384447 16.33391013 4 18 C3.01 18 2.02 18 1 18 C0.67 16.68 0.34 15.36 0 14 C-1.32 14.99 -2.64 15.98 -4 17 C-3.67 15.68 -3.34 14.36 -3 13 C-2.34 13 -1.68 13 -1 13 C-1.01160156 12.31292969 -1.02320313 11.62585937 -1.03515625 10.91796875 C-1.04417969 10.01691406 -1.05320312 9.11585937 -1.0625 8.1875 C-1.07410156 7.29417969 -1.08570313 6.40085937 -1.09765625 5.48046875 C-1 3 -1 3 0 0 Z " fill="#DBDBDB" transform="translate(15,8)"/>
</svg>
